# xmcd
#
# Track frame offsets: 
#        150
#        11046
#        23963
#        36039
#        47182
#        57628
#        71854
#        88142
#        101805
#        119686
#        132164
#        145977
#        157602
#        177082
#        198733
#        213809
#        231530
#        249838
#
# Disc length: 3647 seconds
#
# Revision: 0
# Processed by: cddbd v1.5.1PL2 Copyright (c) Steve Scherf et al.
# Submitted via: ExactAudioCopy v0.95b3
#
DISCID=0a0e3d12
DTITLE=AAVV - Let's blues - CD 2
DYEAR=1900
DGENRE=Blues
TTITLE0=The red rooster
TTITLE1=I jast want to make love to you
TTITLE2=Bright lights, big city
TTITLE3=Diddley Daddy
TTITLE4=Susie Q
TTITLE5=Blues is my Middle name
TTITLE6=Saint Louis Blues
TTITLE7=How long blues
TTITLE8=Telephone blues
TTITLE9=Leaving blues
TTITLE10=Walking the blues
TTITLE11=Don't start me talking
TTITLE12=One step ahead
TTITLE13=New walking blues
TTITLE14=Couldn't get it right
TTITLE15=C.C. Rider
TTITLE16=Boogie woogie Papa
TTITLE17=Saturday night fish frey
EXTD=
EXTT0=
EXTT1=
EXTT2=
EXTT3=
EXTT4=
EXTT5=
EXTT6=
EXTT7=
EXTT8=
EXTT9=
EXTT10=
EXTT11=
EXTT12=
EXTT13=
EXTT14=
EXTT15=
EXTT16=
EXTT17=
PLAYORDER=
